<svg width="37" height="22" viewBox="0 0 37 22" fill="none" xmlns="http://www.w3.org/2000/svg">
<rect width="37" height="22" fill="#F5F5F5"/>
<path fill-rule="evenodd" clip-rule="evenodd" d="M3.39733 0H33.0888C33.5351 -3.98596e-08 33.977 0.0879222 34.3893 0.258744C34.8015 0.429566 35.1761 0.67994 35.4916 0.995564C35.8071 1.31119 36.0573 1.68588 36.228 2.09823C36.3986 2.51057 36.4863 2.9525 36.4862 3.39877V14.7266C36.4862 15.1726 36.3983 15.6143 36.2275 16.0264C36.0568 16.4386 35.8065 16.813 35.491 17.1283C35.1755 17.4437 34.801 17.6938 34.3888 17.8644C33.9766 18.035 33.5349 18.1226 33.0888 18.1225H22.4402L23.8976 21.705L17.4648 18.1225H3.39303C2.49299 18.1213 1.63019 17.7631 0.99404 17.1264C0.357888 16.4897 0.00037968 15.6266 0 14.7266V3.39877C-8.04222e-08 2.49761 0.357886 1.63334 0.994969 0.995984C1.63205 0.358633 2.49617 0.000380719 3.39733 0V0Z" fill="#7D57A4"/>
<path d="M1.83652 3.07713C1.9489 2.93669 2.09072 2.82263 2.25199 2.74298C2.41325 2.66334 2.59004 2.62007 2.76986 2.6162C3.52705 2.56356 3.96165 2.92061 4.07365 3.68738C4.5408 6.79754 5.04097 9.43767 5.57416 11.6078L8.84227 5.39323C9.13806 4.83227 9.51187 4.53552 9.9637 4.50297C10.6185 4.45703 11.0277 4.87391 11.1914 5.75364C11.499 7.49328 11.9716 9.19966 12.6029 10.8496C12.9954 7.06462 13.6506 4.32827 14.5686 2.64062C14.6572 2.45133 14.7957 2.2898 14.9693 2.17341C15.1429 2.05702 15.3449 1.99018 15.5537 1.9801C15.8935 1.95217 16.2309 2.05776 16.4942 2.27446C16.6285 2.37593 16.739 2.5057 16.8176 2.65458C16.8963 2.80346 16.9413 2.96781 16.9493 3.136C16.9734 3.38424 16.9234 3.63405 16.8058 3.85395C16.2237 4.93374 15.7451 6.72909 15.3699 9.24C14.9994 11.6638 14.8625 13.5597 14.9592 14.9276C14.9931 15.2629 14.933 15.601 14.7854 15.904C14.7138 16.0569 14.6023 16.1877 14.4625 16.2825C14.3227 16.3773 14.16 16.4325 13.9914 16.4425C13.598 16.4712 13.206 16.2859 12.8111 15.8896C11.425 14.4681 10.3241 12.353 9.50852 9.54441C8.55126 11.4589 7.83331 12.891 7.35468 13.8406C6.47878 15.5254 5.72828 16.3893 5.10319 16.4324C4.69731 16.4611 4.35174 16.1203 4.06647 15.4101C3.30066 13.4601 2.47933 9.68752 1.60247 4.09231C1.56782 3.91615 1.57075 3.73466 1.61109 3.55972C1.65142 3.38478 1.72824 3.22033 1.83652 3.07713V3.07713Z" fill="white"/>
<path d="M33.8872 5.42051C33.6408 4.97586 33.2995 4.59095 32.8875 4.29314C32.4756 3.99533 32.0031 3.79194 31.5036 3.69743C31.2373 3.64114 30.9659 3.61227 30.6937 3.61128C29.2655 3.61128 28.0986 4.35459 27.193 5.84123C26.4219 7.10543 26.0204 8.56045 26.0343 10.0412C26.0343 11.1899 26.2736 12.1745 26.7522 12.9949C26.9983 13.44 27.3397 13.8253 27.752 14.1231C28.1643 14.421 28.6373 14.6241 29.1372 14.7179C29.4029 14.7755 29.6738 14.8048 29.9456 14.8055C31.3882 14.8055 32.5547 14.0622 33.4449 12.5756C34.216 11.3023 34.6177 9.83967 34.6051 8.35118C34.6051 7.20246 34.3658 6.22557 33.8872 5.42051ZM32.0061 9.55733C31.8022 10.5337 31.4241 11.2694 30.8718 11.7643C30.4343 12.1577 30.0332 12.3181 29.6685 12.2453C29.3038 12.1726 29.0113 11.8509 28.7912 11.2804C28.6225 10.8476 28.5334 10.3879 28.5284 9.92348C28.527 9.55598 28.5636 9.18932 28.6375 8.82933C28.7797 8.19235 29.0472 7.59002 29.4244 7.05743C29.9203 6.32895 30.4381 6.02311 30.978 6.13989C31.3428 6.2136 31.6347 6.53429 31.8539 7.10195C32.0221 7.53432 32.1106 7.99354 32.1153 8.45743C32.1171 8.82686 32.0806 9.19547 32.0061 9.55733V9.55733Z" fill="white"/>
<path d="M24.5424 5.42051C24.296 4.97586 23.9547 4.59095 23.5427 4.29314C23.1308 3.99533 22.6583 3.79194 22.1588 3.69743C21.8925 3.64114 21.6211 3.61227 21.3489 3.61128C19.9197 3.61128 18.7533 4.35459 17.8496 5.84123C17.0774 7.10504 16.6754 8.56023 16.6894 10.0412C16.6894 11.1899 16.9288 12.1745 17.4074 12.9949C17.6531 13.4403 17.9944 13.8258 18.4068 14.1237C18.8191 14.4217 19.2923 14.6246 19.7924 14.7179C20.0581 14.7755 20.329 14.8048 20.6008 14.8055C22.0444 14.8055 23.2113 14.0622 24.1015 12.5756C24.8753 11.303 25.2805 9.84052 25.2718 8.35118C25.2718 7.20246 25.0325 6.22557 24.5539 5.42051H24.5424ZM22.6613 9.55733C22.4574 10.5357 22.0784 11.2723 21.5241 11.7672C21.0857 12.1606 20.6846 12.321 20.3208 12.2482C19.9571 12.1754 19.6656 11.8529 19.4464 11.2804C19.2777 10.8476 19.1886 10.3879 19.1836 9.92348C19.1822 9.55598 19.2188 9.18932 19.2927 8.82933C19.4361 8.19275 19.7035 7.59066 20.0796 7.05743C20.5735 6.33087 21.0914 6.02598 21.6332 6.14277C21.998 6.21648 22.2894 6.53716 22.5077 7.10482C22.6763 7.53712 22.7653 7.99633 22.7705 8.4603C22.7719 8.82781 22.7354 9.19448 22.6613 9.55446V9.55733Z" fill="white"/>
</svg>
